name rise32.9588peak41.5061fall63.4684.mot
datacolumns 19
datarows 23
range 9.17496600000000 9.21163500000000
endheader
time	ground_force1_vx	ground_force1_vy	ground_force1_vz	ground_force1_px	ground_force1_py	ground_force1_pz	ground_force2_vx	ground_force2_vy	ground_force2_vz	ground_force2_px	ground_force2_py	ground_force2_pz	ground_torque1_x	ground_torque1_y	ground_torque1_z	ground_torque2_x	ground_torque2_y	ground_torque2_z	
9.17496600000000	-6.79670100000000	42.25079200000000	-10.90090700000000	0.26492100000000	0.00000000000000	0.09328100000000	-33.01692900000000	775.08898699999997	-42.47204100000000	0.09751300000000	0.00000000000000	-0.07448300000000	0.00000000000000	-6.16459400000000	0.00000000000000	0.00000000000000	-11.26191100000000	0.00000000000000	
9.17663200000000	-7.38180300000000	49.69849800000000	-12.18176500000000	0.26959700000000	0.00000000000000	0.09480500000000	-33.80546000000000	772.74909200000002	-42.20527400000000	0.09667100000000	0.00000000000000	-0.07436600000000	0.00000000000000	-6.96846400000000	0.00000000000000	0.00000000000000	-11.27364200000000	0.00000000000000	
9.17830400000000	-7.81887800000000	57.28858000000000	-13.31927400000000	0.27391400000000	0.00000000000000	0.09616900000000	-34.63329300000000	770.31058499999995	-41.92783800000000	0.09582600000000	0.00000000000000	-0.07424800000000	0.00000000000000	-7.70728000000000	0.00000000000000	0.00000000000000	-11.29209900000000	0.00000000000000	
9.17996300000000	-8.08930700000000	64.92780100000000	-14.28494400000000	0.27792900000000	0.00000000000000	0.09739800000000	-35.49917500000000	767.76900999999998	-41.63941000000000	0.09497700000000	0.00000000000000	-0.07412900000000	0.00000000000000	-8.36352100000000	0.00000000000000	0.00000000000000	-11.31707900000000	0.00000000000000	
9.18163700000000	-8.18258400000000	72.54474300000000	-15.06064900000000	0.28169000000000	0.00000000000000	0.09851400000000	-36.40168300000000	765.11977000000002	-41.33966200000000	0.09412700000000	0.00000000000000	-0.07400900000000	0.00000000000000	-8.92528300000000	0.00000000000000	0.00000000000000	-11.34834500000000	0.00000000000000	
9.18330000000000	-8.09613000000000	80.09216400000000	-15.63865700000000	0.28523000000000	0.00000000000000	0.09953200000000	-37.33922100000000	762.35815000000002	-41.02826500000000	0.09327600000000	0.00000000000000	-0.07388800000000	0.00000000000000	-9.38644900000000	0.00000000000000	0.00000000000000	-11.38563400000000	0.00000000000000	
9.18497900000000	-7.83449200000000	87.54695700000001	-16.02080300000000	0.28858000000000	0.00000000000000	0.10046600000000	-38.31002500000000	759.47932700000001	-40.70489000000000	0.09242600000000	0.00000000000000	-0.07376600000000	0.00000000000000	-9.74636700000000	0.00000000000000	0.00000000000000	-11.42865300000000	0.00000000000000	
9.18663600000000	-7.40809000000000	94.90812500000000	-16.21702200000000	0.29176300000000	0.00000000000000	0.10132800000000	-39.31216600000000	756.47839199999999	-40.36921300000000	0.09157800000000	0.00000000000000	-0.07364300000000	0.00000000000000	-10.00911900000000	0.00000000000000	0.00000000000000	-11.47708200000000	0.00000000000000	
9.18829600000000	-6.83171000000000	102.19327500000000	-16.24346900000000	0.29479700000000	0.00000000000000	0.10212500000000	-40.34355500000000	753.35036900000000	-40.02091300000000	0.09073400000000	0.00000000000000	-0.07351900000000	0.00000000000000	-10.18254300000000	0.00000000000000	0.00000000000000	-11.53057500000000	0.00000000000000	
9.18996900000000	-6.12289100000000	109.43418300000000	-16.12045100000000	0.29769800000000	0.00000000000000	0.10286700000000	-41.40194400000000	750.09023500000001	-39.65967900000000	0.08989400000000	0.00000000000000	-0.07339300000000	0.00000000000000	-10.27709600000000	0.00000000000000	0.00000000000000	-11.58875800000000	0.00000000000000	
9.19163000000000	-5.30037600000000	116.67196300000001	-15.87038400000000	0.30047900000000	0.00000000000000	0.10355900000000	-42.48493300000000	746.69294100000002	-39.28521000000000	0.08906100000000	0.00000000000000	-0.07326600000000	0.00000000000000	-10.30470100000000	0.00000000000000	0.00000000000000	-11.65123600000000	0.00000000000000	
9.19329500000000	-4.38272400000000	123.95229399999999	-15.51592200000000	0.30315000000000	0.00000000000000	0.10420600000000	-43.58997600000000	743.15343499999994	-38.89721900000000	0.08823600000000	0.00000000000000	-0.07313700000000	0.00000000000000	-10.27767600000000	0.00000000000000	0.00000000000000	-11.71758700000000	0.00000000000000	
9.19496300000000	-3.38718400000000	131.32107700000000	-15.07839500000000	0.30572000000000	0.00000000000000	0.10481400000000	-44.71438800000000	739.46668499999998	-38.49543500000000	0.08741900000000	0.00000000000000	-0.07300700000000	0.00000000000000	-10.20779900000000	0.00000000000000	0.00000000000000	-11.78736700000000	0.00000000000000	
9.19663600000000	-2.32885700000000	138.82079899999999	-14.57661300000000	0.30819600000000	0.00000000000000	0.10538700000000	-45.85535000000000	735.62770599999999	-38.07960500000000	0.08661200000000	0.00000000000000	-0.07287500000000	0.00000000000000	-10.10557800000000	0.00000000000000	0.00000000000000	-11.86011400000000	0.00000000000000	
9.19830000000000	-1.22017200000000	146.48774599999999	-14.02606300000000	0.31058400000000	0.00000000000000	0.10592700000000	-47.00991700000000	731.63158099999998	-37.64949900000000	0.08581700000000	0.00000000000000	-0.07274100000000	0.00000000000000	-9.97974100000000	0.00000000000000	0.00000000000000	-11.93534400000000	0.00000000000000	
9.19996700000000	-0.07066000000000	154.35013799999999	-13.43850800000000	0.31289000000000	0.00000000000000	0.10643800000000	-48.17502700000000	727.47349099999997	-37.20490800000000	0.08503300000000	0.00000000000000	-0.07260600000000	0.00000000000000	-9.83695100000000	0.00000000000000	0.00000000000000	-12.01255600000000	0.00000000000000	
9.20163100000000	1.11302100000000	162.42715500000000	-12.82192600000000	0.31511700000000	0.00000000000000	0.10692300000000	-49.34751100000000	723.14873699999998	-36.74565300000000	0.08426300000000	0.00000000000000	-0.07246900000000	0.00000000000000	-9.68171400000000	0.00000000000000	0.00000000000000	-12.09123200000000	0.00000000000000	
9.20331200000000	2.32684100000000	170.72877399999999	-12.18074300000000	0.31726800000000	0.00000000000000	0.10738300000000	-50.52409900000000	718.65277400000002	-36.27158100000000	0.08350800000000	0.00000000000000	-0.07233000000000	0.00000000000000	-9.51648300000000	0.00000000000000	0.00000000000000	-12.17084200000000	0.00000000000000	
9.20496200000000	3.56900600000000	179.25626900000000	-11.51629700000000	0.31934700000000	0.00000000000000	0.10782200000000	-51.70143300000000	713.98123299999997	-35.78257000000000	0.08276700000000	0.00000000000000	-0.07218900000000	0.00000000000000	-9.34188200000000	0.00000000000000	0.00000000000000	-12.25084100000000	0.00000000000000	
9.20663400000000	4.83946600000000	188.00323000000000	-10.82743000000000	0.32135600000000	0.00000000000000	0.10823900000000	-52.87607600000000	709.12994800000001	-35.27853300000000	0.08204300000000	0.00000000000000	-0.07204600000000	0.00000000000000	-9.15703500000000	0.00000000000000	0.00000000000000	-12.33067500000000	0.00000000000000	
9.20829900000000	6.13938000000000	196.95690999999999	-10.11117400000000	0.32329700000000	0.00000000000000	0.10863800000000	-54.04452100000000	704.09498599999995	-34.75941400000000	0.08133600000000	0.00000000000000	-0.07190100000000	0.00000000000000	-8.95994800000000	0.00000000000000	0.00000000000000	-12.40978100000000	0.00000000000000	
9.20996900000000	7.47059800000000	206.09975900000001	-9.36343700000000	0.32517100000000	0.00000000000000	0.10902000000000	-55.20320600000000	698.87267099999997	-34.22520000000000	0.08064600000000	0.00000000000000	-0.07175300000000	0.00000000000000	-8.74790100000000	0.00000000000000	0.00000000000000	-12.48759000000000	0.00000000000000	
9.21163500000000	8.83516700000000	215.41098299999999	-8.57964300000000	0.32697900000000	0.00000000000000	0.10938500000000	-56.34852100000000	693.45960500000001	-33.67591000000000	0.07997500000000	0.00000000000000	-0.07160400000000	0.00000000000000	-8.51783600000000	0.00000000000000	0.00000000000000	-12.56352600000000	0.00000000000000	
